<svg xmlns="http://www.w3.org/2000/svg" viewBox="0 0 1200 760"><defs><linearGradient id="g" x2="0" y2="1"><stop stop-color="#192a35"/><stop offset=".55" stop-color="#617b7a"/><stop offset="1" stop-color="#263b3e"/></linearGradient></defs><rect width="1200" height="760" fill="url(#g)"/><path d="M0 470c180-80 300-20 450-105 170-95 320 45 470-45 120-70 210-15 280-45v485H0Z" fill="#30464b"/><path d="M0 565c220-90 360-30 520-110 180-90 330 25 480-55 90-45 150-30 200-40v400H0Z" fill="#17282c"/><path d="M240 360C430 110 770 110 960 360" fill="none" stroke="#c96b54" stroke-width="14" opacity=".75"/><path d="M255 360C440 145 760 145 945 360" fill="none" stroke="#d8a65f" stroke-width="14" opacity=".8"/><path d="M270 360C450 180 750 180 930 360" fill="none" stroke="#8eaf9c" stroke-width="14" opacity=".8"/><path d="M285 360C465 215 735 215 915 360" fill="none" stroke="#88aabd" stroke-width="14" opacity=".8"/></svg>