<svg xmlns="http://www.w3.org/2000/svg" viewBox="0 0 1200 760"><defs><radialGradient id="s"><stop stop-color="#f4d99b"/><stop offset="1" stop-color="#d9ad61" stop-opacity="0"/></radialGradient></defs><rect width="1200" height="760" fill="#2c251e"/><circle cx="960" cy="165" r="115" fill="url(#s)" opacity=".7"/><path d="M0 505c160-65 330-35 480-100 170-75 330 15 480-60 120-60 180-20 240-35v450H0Z" fill="#4c3b2d"/><path d="M0 610c210-80 370-25 550-110 170-80 330 20 490-60 80-40 125-25 160-30v350H0Z" fill="#201c18"/><path d="M470 510h265l-35-60-35-60-30-75-30 75-35 60Z" fill="#8c6a45"/><path d="M520 510h165M540 470h130M565 430h85M585 390h50M600 350h20" stroke="#c39b66" stroke-width="10" opacity=".8"/></svg>