<svg xmlns="http://www.w3.org/2000/svg" viewBox="0 0 1200 760"><defs><linearGradient id="bg" x2="0" y2="1"><stop stop-color="#18262e"/><stop offset="1" stop-color="#0b151c"/></linearGradient><linearGradient id="paper" x2="1" y2="1"><stop stop-color="#f2dfb5"/><stop offset="1" stop-color="#b9955e"/></linearGradient></defs><rect width="1200" height="760" fill="url(#bg)"/><ellipse cx="610" cy="470" rx="410" ry="190" fill="#000" opacity=".24"/><g transform="rotate(-8 600 420)"><rect x="320" y="170" width="560" height="410" rx="12" fill="#7c5d3c" opacity=".45"/><rect x="345" y="150" width="255" height="420" rx="8" fill="url(#paper)"/><rect x="600" y="150" width="255" height="420" rx="8" fill="#e4cea0"/><path d="M600 165c-28 55-28 345 0 390" stroke="#876b45" stroke-opacity=".35" stroke-width="8"/><g stroke="#6b573d" stroke-opacity=".45" stroke-width="5"><path d="M385 230h170M385 255h150M385 280h180M385 340h170M385 365h155M385 390h180M645 230h170M645 255h150M645 280h180M645 340h170M645 365h155M645 390h180"/></g></g><circle cx="970" cy="150" r="100" fill="#d9ad61" opacity=".1"/></svg>